<svg width="244" height="42" viewBox="0 0 244 42" fill="none" xmlns="http://www.w3.org/2000/svg">
<g filter="url(#filter0_d_649_19)">
<rect x="4" width="236" height="34" rx="17" fill="white"/>
<path d="M53.74 22.21C52.89 22.21 52.065 22.105 51.265 21.895C50.465 21.685 49.815 21.405 49.315 21.055L50.29 18.865C50.76 19.175 51.305 19.425 51.925 19.615C52.545 19.805 53.155 19.9 53.755 19.9C54.895 19.9 55.465 19.615 55.465 19.045C55.465 18.745 55.3 18.525 54.97 18.385C54.65 18.235 54.13 18.08 53.41 17.92C52.62 17.75 51.96 17.57 51.43 17.38C50.9 17.18 50.445 16.865 50.065 16.435C49.685 16.005 49.495 15.425 49.495 14.695C49.495 14.055 49.67 13.48 50.02 12.97C50.37 12.45 50.89 12.04 51.58 11.74C52.28 11.44 53.135 11.29 54.145 11.29C54.835 11.29 55.515 11.37 56.185 11.53C56.855 11.68 57.445 11.905 57.955 12.205L57.04 14.41C56.04 13.87 55.07 13.6 54.13 13.6C53.54 13.6 53.11 13.69 52.84 13.87C52.57 14.04 52.435 14.265 52.435 14.545C52.435 14.825 52.595 15.035 52.915 15.175C53.235 15.315 53.75 15.46 54.46 15.61C55.26 15.78 55.92 15.965 56.44 16.165C56.97 16.355 57.425 16.665 57.805 17.095C58.195 17.515 58.39 18.09 58.39 18.82C58.39 19.45 58.215 20.02 57.865 20.53C57.515 21.04 56.99 21.45 56.29 21.76C55.59 22.06 54.74 22.21 53.74 22.21ZM63.5269 13.87H66.3769V22H63.5269V13.87ZM64.9519 12.97C64.4319 12.97 64.0119 12.825 63.6919 12.535C63.3719 12.245 63.2119 11.885 63.2119 11.455C63.2119 11.025 63.3719 10.665 63.6919 10.375C64.0119 10.085 64.4319 9.94 64.9519 9.94C65.4719 9.94 65.8919 10.08 66.2119 10.36C66.5319 10.63 66.6919 10.98 66.6919 11.41C66.6919 11.86 66.5319 12.235 66.2119 12.535C65.8919 12.825 65.4719 12.97 64.9519 12.97ZM72.1291 10.87H74.9791V22H72.1291V10.87ZM84.1962 13.735C85.5462 13.735 86.5762 14.045 87.2862 14.665C87.9962 15.275 88.3512 16.215 88.3512 17.485V22H85.6962V20.95C85.2862 21.74 84.4862 22.135 83.2962 22.135C82.6662 22.135 82.1212 22.025 81.6612 21.805C81.2012 21.585 80.8512 21.29 80.6112 20.92C80.3812 20.54 80.2662 20.11 80.2662 19.63C80.2662 18.86 80.5612 18.265 81.1512 17.845C81.7412 17.415 82.6512 17.2 83.8812 17.2H85.5012C85.4512 16.34 84.8762 15.91 83.7762 15.91C83.3862 15.91 82.9912 15.975 82.5912 16.105C82.1912 16.225 81.8512 16.395 81.5712 16.615L80.6112 14.68C81.0612 14.38 81.6062 14.15 82.2462 13.99C82.8962 13.82 83.5462 13.735 84.1962 13.735ZM84.0912 20.335C84.4212 20.335 84.7112 20.255 84.9612 20.095C85.2112 19.935 85.3912 19.7 85.5012 19.39V18.685H84.2712C83.4412 18.685 83.0262 18.96 83.0262 19.51C83.0262 19.76 83.1212 19.96 83.3112 20.11C83.5012 20.26 83.7612 20.335 84.0912 20.335ZM97.7402 19.15L96.9002 20.005V22H94.0502V10.87H96.9002V16.705L99.8102 13.87H103.185L99.8102 17.35L103.47 22H100.02L97.7402 19.15ZM111.552 13.735C112.902 13.735 113.932 14.045 114.642 14.665C115.352 15.275 115.707 16.215 115.707 17.485V22H113.052V20.95C112.642 21.74 111.842 22.135 110.652 22.135C110.022 22.135 109.477 22.025 109.017 21.805C108.557 21.585 108.207 21.29 107.967 20.92C107.737 20.54 107.622 20.11 107.622 19.63C107.622 18.86 107.917 18.265 108.507 17.845C109.097 17.415 110.007 17.2 111.237 17.2H112.857C112.807 16.34 112.232 15.91 111.132 15.91C110.742 15.91 110.347 15.975 109.947 16.105C109.547 16.225 109.207 16.395 108.927 16.615L107.967 14.68C108.417 14.38 108.962 14.15 109.602 13.99C110.252 13.82 110.902 13.735 111.552 13.735ZM111.447 20.335C111.777 20.335 112.067 20.255 112.317 20.095C112.567 19.935 112.747 19.7 112.857 19.39V18.685H111.627C110.797 18.685 110.382 18.96 110.382 19.51C110.382 19.76 110.477 19.96 110.667 20.11C110.857 20.26 111.117 20.335 111.447 20.335ZM126.701 13.735C127.711 13.735 128.521 14.035 129.131 14.635C129.751 15.235 130.061 16.14 130.061 17.35V22H127.211V17.815C127.211 16.705 126.766 16.15 125.876 16.15C125.386 16.15 124.991 16.31 124.691 16.63C124.401 16.95 124.256 17.43 124.256 18.07V22H121.406V13.87H124.121V14.755C124.441 14.425 124.821 14.175 125.261 14.005C125.701 13.825 126.181 13.735 126.701 13.735ZM148.95 11.5C149.9 11.5 150.725 11.66 151.425 11.98C152.125 12.29 152.665 12.74 153.045 13.33C153.425 13.91 153.615 14.595 153.615 15.385C153.615 16.175 153.425 16.86 153.045 17.44C152.665 18.02 152.125 18.47 151.425 18.79C150.725 19.1 149.9 19.255 148.95 19.255H147.12V22H144.15V11.5H148.95ZM148.77 16.915C149.38 16.915 149.84 16.785 150.15 16.525C150.46 16.255 150.615 15.875 150.615 15.385C150.615 14.895 150.46 14.515 150.15 14.245C149.84 13.975 149.38 13.84 148.77 13.84H147.12V16.915H148.77ZM158.902 13.87H161.752V22H158.902V13.87ZM160.327 12.97C159.807 12.97 159.387 12.825 159.067 12.535C158.747 12.245 158.587 11.885 158.587 11.455C158.587 11.025 158.747 10.665 159.067 10.375C159.387 10.085 159.807 9.94 160.327 9.94C160.847 9.94 161.267 10.08 161.587 10.36C161.907 10.63 162.067 10.98 162.067 11.41C162.067 11.86 161.907 12.235 161.587 12.535C161.267 12.825 160.847 12.97 160.327 12.97ZM167.504 10.87H170.354V22H167.504V10.87ZM176.106 13.87H178.956V22H176.106V13.87ZM177.531 12.97C177.011 12.97 176.591 12.825 176.271 12.535C175.951 12.245 175.791 11.885 175.791 11.455C175.791 11.025 175.951 10.665 176.271 10.375C176.591 10.085 177.011 9.94 177.531 9.94C178.051 9.94 178.471 10.08 178.791 10.36C179.111 10.63 179.271 10.98 179.271 11.41C179.271 11.86 179.111 12.235 178.791 12.535C178.471 12.825 178.051 12.97 177.531 12.97ZM190.003 13.735C191.013 13.735 191.823 14.035 192.433 14.635C193.053 15.235 193.363 16.14 193.363 17.35V22H190.513V17.815C190.513 16.705 190.068 16.15 189.178 16.15C188.688 16.15 188.293 16.31 187.993 16.63C187.703 16.95 187.558 17.43 187.558 18.07V22H184.708V10.87H187.558V14.62C187.868 14.33 188.233 14.11 188.653 13.96C189.073 13.81 189.523 13.735 190.003 13.735Z" fill="#08254F"/>
</g>
<defs>
<filter id="filter0_d_649_19" x="0" y="0" width="244" height="42" filterUnits="userSpaceOnUse" color-interpolation-filters="sRGB">
<feFlood flood-opacity="0" result="BackgroundImageFix"/>
<feColorMatrix in="SourceAlpha" type="matrix" values="0 0 0 0 0 0 0 0 0 0 0 0 0 0 0 0 0 0 127 0" result="hardAlpha"/>
<feOffset dy="4"/>
<feGaussianBlur stdDeviation="2"/>
<feComposite in2="hardAlpha" operator="out"/>
<feColorMatrix type="matrix" values="0 0 0 0 0 0 0 0 0 0 0 0 0 0 0 0 0 0 0.25 0"/>
<feBlend mode="normal" in2="BackgroundImageFix" result="effect1_dropShadow_649_19"/>
<feBlend mode="normal" in="SourceGraphic" in2="effect1_dropShadow_649_19" result="shape"/>
</filter>
</defs>
</svg>
